 <svg xmlns="http://www.w3.org/2000/svg" viewBox="0 0 150 150" class="logo-icon">
    <!-- Все оригинальные пути, только синий цвет -->
    <path fill="#3b82f6" d="M 37.71875 43.960938 C 35.347656 44.28125 32.945312 45.058594 30.394531 46.316406 C 28.375 47.328125 26.382812 48.792969 24.652344 50.566406 C 23.570312 51.648438 21.5625 54.273438 21.445312 54.742188 C 21.386719 54.929688 21.3125 55.078125 21.242188 55.078125 C 21.078125 55.078125 19.6875 58.109375 19.277344 59.355469 C 18.441406 61.949219 18.238281 63.296875 18.238281 66.285156 C 18.253906 69.332031 18.457031 70.664062 19.351562 73.519531 C 19.90625 75.25 21.210938 78.355469 22.003906 79.832031 C 23.421875 82.484375 26.058594 86.5 28.109375 89.136719 C 28.667969 89.851562 29.09375 90.496094 29.035156 90.542969 C 28.976562 90.585938 28.375 90.746094 27.6875 90.894531 C 24.171875 91.625 19.601562 93.558594 17.578125 95.183594 C 16.1875 96.296875 15.117188 97.527344 14.5625 98.65625 C 14.078125 99.636719 14.003906 99.945312 13.945312 101.042969 C 13.84375 103.285156 14.679688 105.027344 16.683594 106.726562 C 18.589844 108.367188 20.363281 109.351562 23.714844 110.667969 C 26.25 111.648438 30.734375 112.644531 34.789062 113.113281 C 36.972656 113.363281 44.984375 113.363281 47.023438 113.113281 C 54.507812 112.175781 59.941406 110.507812 63.867188 107.945312 C 64.90625 107.253906 66.488281 105.730469 67.132812 104.792969 C 68.4375 102.875 68.4375 100.0625 67.132812 97.953125 C 66.09375 96.253906 63.546875 94.292969 60.761719 93.015625 L 59.765625 92.578125 L 56.585938 92.59375 L 53.394531 92.59375 L 54.859375 93.003906 C 59.28125 94.234375 62.359375 95.726562 64.394531 97.660156 C 66.09375 99.273438 66.605469 101.335938 65.800781 103.183594 C 65.230469 104.441406 62.988281 106.40625 60.835938 107.488281 C 57.523438 109.1875 51.546875 110.699219 46.289062 111.179688 C 44.078125 111.386719 38.746094 111.445312 36.621094 111.285156 C 26.617188 110.507812 18.398438 107.253906 16.304688 103.242188 C 15.71875 102.113281 15.734375 100.75 16.320312 99.550781 C 17.738281 96.707031 22.074219 94.234375 28.125 92.8125 C 30.894531 92.152344 30.585938 92.109375 31.582031 93.25 C 33.265625 95.183594 34.074219 96.050781 36.578125 98.523438 C 37.953125 99.902344 39.464844 101.308594 39.917969 101.660156 C 40.695312 102.261719 40.753906 102.273438 41.117188 102.085938 C 41.339844 101.96875 43.566406 99.84375 46.054688 97.339844 L 50.609375 92.796875 L 49.320312 92.722656 L 48.03125 92.652344 L 44.472656 96.195312 C 42.523438 98.160156 40.855469 99.753906 40.753906 99.753906 C 40.179688 99.753906 32.285156 91.347656 29.28125 87.539062 C 28.519531 86.585938 25.195312 81.695312 25.195312 81.53125 C 25.195312 81.503906 24.886719 80.917969 24.492188 80.242188 C 23.410156 78.355469 22.0625 75.378906 21.460938 73.609375 C 20.523438 70.808594 20.347656 69.800781 20.257812 66.722656 C 20.199219 64.144531 20.214844 63.808594 20.550781 62.253906 C 21.152344 59.472656 22.574219 56.292969 24.230469 54.050781 C 25.179688 52.761719 27.289062 50.652344 28.550781 49.746094 C 30.921875 48.046875 33.734375 46.800781 36.871094 46.097656 C 38.90625 45.644531 43.066406 45.660156 45.148438 46.113281 C 46.613281 46.433594 48.925781 47.242188 50.113281 47.839844 C 50.492188 48.03125 50.832031 48.132812 50.890625 48.089844 C 50.933594 48.03125 50.976562 48.0625 50.976562 48.148438 C 50.976562 48.238281 51.328125 48.515625 51.753906 48.75 C 53.644531 49.832031 56.132812 52.207031 57.640625 54.359375 C 58.417969 55.445312 59.925781 58.199219 60.089844 58.8125 C 60.132812 58.972656 60.351562 59.691406 60.570312 60.425781 C 60.777344 61.140625 60.996094 62.136719 61.054688 62.621094 L 61.15625 63.5 L 63.164062 63.5 L 63.078125 62.621094 C 62.84375 60.425781 61.378906 56.46875 59.941406 54.199219 C 57.90625 50.976562 55.121094 48.382812 51.621094 46.433594 C 49.746094 45.394531 48.265625 44.839844 45.921875 44.296875 C 44.398438 43.960938 43.800781 43.902344 41.457031 43.855469 C 39.960938 43.84375 38.292969 43.886719 37.71875 43.960938 Z M 37.71875 43.960938 "/>
    <path fill="#3b82f6" d="M 38.410156 53.1875 C 35.773438 53.628906 32.433594 55.398438 30.734375 57.261719 C 29.0625 59.089844 28.183594 60.554688 27.453125 62.722656 C 26.75 64.820312 26.558594 66.472656 26.777344 68.582031 C 26.878906 69.492188 27.027344 70.53125 27.128906 70.882812 L 27.289062 71.527344 L 27.523438 71.089844 C 27.65625 70.855469 27.980469 70.339844 28.257812 69.945312 L 28.753906 69.242188 L 28.785156 67.03125 C 28.8125 64.746094 28.929688 64.101562 29.605469 62.546875 C 30.804688 59.707031 33.164062 57.214844 35.785156 56.03125 C 37.425781 55.28125 38.878906 55.003906 41.089844 55.019531 C 43.007812 55.019531 43.226562 55.0625 44.503906 55.503906 C 48.019531 56.71875 50.773438 59.3125 51.945312 62.476562 L 52.265625 63.355469 L 53.292969 63.398438 L 54.300781 63.441406 L 54.199219 62.886719 C 53.804688 60.921875 52.472656 58.753906 50.449219 56.820312 C 48.488281 54.960938 46.320312 53.816406 43.609375 53.246094 C 42.511719 53.011719 39.667969 52.984375 38.410156 53.1875 Z M 38.410156 53.1875 "/>
    <path fill="#3b82f6" d="M 39.769531 58.476562 C 38.511719 58.929688 37.648438 60.160156 37.648438 61.507812 C 37.648438 62.242188 37.953125 63.089844 38.292969 63.308594 C 38.378906 63.367188 39.550781 63.425781 40.898438 63.425781 L 43.359375 63.425781 L 43.625 62.871094 C 44.269531 61.597656 44.0625 60.234375 43.109375 59.296875 C 42.171875 58.375 40.914062 58.066406 39.769531 58.476562 Z M 41.675781 60.644531 C 42.054688 61.039062 42.042969 61.875 41.632812 62.285156 C 41.164062 62.769531 40.34375 62.722656 39.902344 62.195312 C 39.492188 61.726562 39.476562 61.523438 39.785156 60.921875 C 40.167969 60.175781 41.046875 60.042969 41.675781 60.644531 Z M 41.675781 60.644531 "/>
    <path fill="#3b82f6" d="M 113.539062 73.09375 C 111.828125 73.359375 110.917969 73.972656 110.597656 75.117188 C 110.257812 76.363281 110.507812 77.710938 111.210938 78.382812 C 111.828125 78.953125 112.808594 79.234375 114.917969 79.410156 C 116.925781 79.570312 117.453125 79.730469 117.570312 80.199219 C 117.699219 80.726562 117.394531 81.121094 116.777344 81.253906 C 115.882812 81.445312 113.394531 81.328125 111.871094 81.035156 L 110.433594 80.757812 L 110.480469 81.941406 L 110.523438 83.128906 L 111.839844 83.320312 C 113.746094 83.597656 116.9375 83.582031 117.816406 83.304688 C 118.710938 83.011719 119.429688 82.527344 119.75 82 C 120.132812 81.34375 120.207031 80.097656 119.898438 79.320312 C 119.429688 78.0625 118.375 77.605469 115.285156 77.285156 C 113.570312 77.109375 113.292969 77.035156 113.058594 76.757812 C 112.574219 76.15625 112.835938 75.527344 113.6875 75.292969 C 114.625 75.015625 118.242188 75.261719 119.28125 75.671875 C 119.515625 75.761719 119.546875 75.671875 119.503906 74.617188 L 119.457031 73.460938 L 118.507812 73.285156 C 117.1875 73.050781 114.492188 72.949219 113.539062 73.09375 Z M 113.539062 73.09375 "/>
    <path fill="#3b82f6" d="M 68.996094 73.226562 L 67.601562 73.316406 L 67.558594 78.398438 L 67.53125 83.496094 L 69.859375 83.496094 L 69.902344 82.058594 L 69.945312 80.640625 L 72.582031 80.550781 C 75.878906 80.464844 76.363281 80.273438 77.09375 78.882812 C 77.359375 78.398438 77.402344 78.046875 77.402344 76.902344 C 77.402344 75.71875 77.359375 75.425781 77.066406 74.925781 C 76.230469 73.460938 75.628906 73.242188 72.582031 73.167969 C 71.382812 73.152344 69.757812 73.167969 68.996094 73.226562 Z M 73.988281 75.4375 C 74.691406 75.644531 75.03125 76.039062 75.042969 76.714844 C 75.074219 78.25 74.765625 78.441406 72.085938 78.441406 L 70.09375 78.441406 L 70.050781 76.859375 L 70.003906 75.292969 L 71.734375 75.292969 C 72.6875 75.292969 73.695312 75.367188 73.988281 75.4375 Z M 73.988281 75.4375 "/>
    <path fill="#3b82f6" d="M 47.796875 73.34375 L 46.730469 73.402344 L 46.730469 83.496094 L 49.058594 83.496094 L 49.101562 81.839844 L 49.144531 80.199219 L 50.714844 80.15625 L 52.28125 80.113281 L 52.867188 81.003906 C 53.203125 81.503906 53.46875 81.929688 53.46875 81.957031 C 53.46875 81.988281 53.671875 82.339844 53.921875 82.75 L 54.390625 83.496094 L 55.679688 83.496094 C 56.398438 83.496094 56.984375 83.464844 56.984375 83.421875 C 56.984375 83.378906 56.527344 82.617188 55.957031 81.722656 C 55.402344 80.84375 54.933594 80.023438 54.933594 79.90625 C 54.933594 79.804688 55.0625 79.671875 55.210938 79.613281 C 56.117188 79.335938 56.820312 77.605469 56.632812 76.140625 C 56.457031 74.824219 55.972656 74.105469 54.933594 73.636719 C 54.347656 73.375 53.949219 73.328125 51.5625 73.316406 C 50.070312 73.300781 48.371094 73.316406 47.796875 73.34375 Z M 53.539062 75.644531 C 53.9375 75.804688 54.054688 75.964844 54.125 76.375 C 54.273438 77.152344 54.039062 77.679688 53.453125 77.871094 C 52.75 78.105469 49.425781 78.132812 49.277344 77.914062 C 49.191406 77.769531 49.144531 76.304688 49.203125 75.613281 C 49.234375 75.351562 52.867188 75.367188 53.539062 75.644531 Z M 53.539062 75.644531 "/>
    <path fill="#3b82f6" d="M 88.476562 78.28125 L 88.476562 83.320312 L 89.707031 83.421875 C 90.367188 83.480469 92.007812 83.496094 93.324219 83.464844 C 96.078125 83.394531 96.621094 83.230469 97.777344 82.164062 C 98.730469 81.285156 99.066406 80.125 98.996094 77.972656 C 98.949219 76.582031 98.890625 76.289062 98.527344 75.527344 C 98.058594 74.574219 97.28125 73.929688 96.125 73.503906 C 95.550781 73.300781 94.863281 73.257812 91.964844 73.242188 L 88.476562 73.242188 Z M 95.609375 75.820312 C 96.359375 76.363281 96.546875 76.960938 96.503906 78.542969 C 96.460938 80.125 96.269531 80.535156 95.363281 81.019531 C 94.9375 81.253906 94.527344 81.296875 92.914062 81.296875 L 90.96875 81.296875 L 90.96875 75.367188 L 93.078125 75.4375 C 94.921875 75.496094 95.246094 75.554688 95.609375 75.820312 Z M 95.609375 75.820312 "/>
    <path fill="#3b82f6" d="M 103.492188 73.417969 C 103.460938 73.519531 103.449219 75.820312 103.460938 78.515625 L 103.492188 83.421875 L 105.835938 83.421875 L 105.878906 78.324219 L 105.910156 73.242188 L 104.738281 73.242188 C 103.917969 73.242188 103.535156 73.300781 103.492188 73.417969 Z M 103.492188 73.417969 "/>
    <path fill="#3b82f6" d="M 124.703125 78.324219 L 124.730469 83.394531 L 125.949219 83.4375 L 127.148438 83.480469 L 127.148438 79.539062 L 128.21875 79.554688 L 129.273438 79.554688 L 130.8125 81.488281 L 132.347656 83.421875 L 133.710938 83.464844 C 134.632812 83.496094 135.058594 83.453125 135.058594 83.335938 C 135.058594 83.246094 134.210938 82.105469 133.15625 80.816406 C 132.113281 79.511719 131.25 78.398438 131.25 78.355469 C 131.25 78.25 131.953125 77.328125 133.710938 75.160156 C 134.445312 74.222656 135.058594 73.417969 135.058594 73.359375 C 135.058594 73.199219 132.304688 73.210938 132.246094 73.375 C 132.230469 73.445312 131.515625 74.371094 130.664062 75.425781 L 129.125 77.328125 L 128.144531 77.328125 L 127.148438 77.34375 L 127.148438 73.242188 L 124.660156 73.242188 Z M 124.703125 78.324219 "/>
    <path fill="#3b82f6" d="M 60.792969 78.441406 L 60.792969 83.496094 L 63.28125 83.496094 L 63.28125 73.386719 L 60.792969 73.386719 Z M 60.792969 78.441406 "/>
    <path fill="#3b82f6" d="M 32.960938 74.632812 L 32.960938 75.730469 L 36.621094 75.730469 L 36.621094 83.496094 L 38.964844 83.496094 L 38.964844 75.730469 L 42.773438 75.730469 L 42.773438 73.535156 L 32.960938 73.535156 Z M 32.960938 74.632812 "/>
  </svg>